# xmcd CD database file
#
# Track frame offsets:
#	150
#	15241
#	30159
#	44972
#	64529
#	79982
#	93276
#	114511
#	129341
#	141270
#	154365
#	166320
#	183214
#	197327
#
# Disc length: 2796 seconds
#
# Revision: 0
# Processed by: cddbd v1.4PL0 Copyright (c) Steve Scherf et al.
# Submitted via: CDex 1.50beta9
#
DISCID=ac0aea0e
DTITLE=Blue Lunch - Not Live at the Copa
DYEAR=2001
DGENRE=Blues
TTITLE0=Skin, Bones and Hair
TTITLE1=That's What's Knockin' Me Out
TTITLE2=Cold Day Down Below
TTITLE3=Bloodshot Eyes
TTITLE4=I Got to Learn to Mambo
TTITLE5=Pitchin' Pennies
TTITLE6=The Lonely One
TTITLE7=Gravy Train
TTITLE8=Sixty Minute Man
TTITLE9=Progresso Soup Baby
TTITLE10=Don't Mess Around With My Love
TTITLE11=My Daily Wish
TTITLE12=When The Rooster Crows
TTITLE13=Find My Kind of Woman
EXTD=YEAR: 2001
EXTT0=
EXTT1=
EXTT2=
EXTT3=
EXTT4=
EXTT5=
EXTT6=
EXTT7=
EXTT8=
EXTT9=
EXTT10=
EXTT11=
EXTT12=
EXTT13=
PLAYORDER=
